<?xml version="1.0" standalone="no"?><!DOCTYPE svg PUBLIC "-//W3C//DTD SVG 1.1//EN" "http://www.w3.org/Graphics/SVG/1.1/DTD/svg11.dtd"><svg t="1605264521949" class="icon" viewBox="0 0 1024 1024" version="1.1" xmlns="http://www.w3.org/2000/svg" p-id="3191" xmlns:xlink="http://www.w3.org/1999/xlink" width="200" height="200"><defs><style type="text/css"></style></defs><path d="M976 1024H48a16 16 0 0 1-16-16v-32a16 16 0 0 1 4.768-11.36 480.48 480.48 0 0 1 265.344-372.128A395.36 395.36 0 0 1 224 352c0-194.4 128.928-352 288-352s288 157.6 288 352a395.36 395.36 0 0 1-78.112 240.512 480.48 480.48 0 0 1 265.344 372.128 16 16 0 0 1 4.768 11.36v32a16 16 0 0 1-16 16zM736 352c0-159.072-100.288-288-224-288s-224 128.928-224 288 100.288 288 224 288 224-128.928 224-288z m-60.8 289.792a245.44 245.44 0 0 1-326.592 0A416.32 416.32 0 0 0 101.6 960h820.8a416.256 416.256 0 0 0-247.2-318.208z" p-id="3192" fill="#bf2371"></path></svg>