<?xml version="1.0" standalone="no"?><!DOCTYPE svg PUBLIC "-//W3C//DTD SVG 1.1//EN" "http://www.w3.org/Graphics/SVG/1.1/DTD/svg11.dtd"><svg t="1605264546221" class="icon" viewBox="0 0 1024 1024" version="1.1" xmlns="http://www.w3.org/2000/svg" p-id="3756" xmlns:xlink="http://www.w3.org/1999/xlink" width="200" height="200"><defs><style type="text/css"></style></defs><path d="M320 256v-21.333333c0-105.92 86.016-192 192-192 106.026667 0 192 86.016 192 192v21.333333h68.842667c57.322667 0 107.2 44.928 113.024 102.037333l52.245333 512.597334C944.256 930.901333 898.773333 981.333333 838.293333 981.333333H185.706667c-60.629333 0-105.962667-50.24-99.818667-110.698666l52.245333-512.597334C143.936 301.077333 193.92 256 251.157333 256H320z m0 85.333333h-68.842667c-13.461333 0-26.773333 11.989333-28.138666 25.365334L170.794667 879.296c-1.045333 10.176 4.864 16.704 14.912 16.704h652.586666c9.898667 0 15.936-6.698667 14.933334-16.704l-52.266667-512.597333c-1.365333-13.504-14.506667-25.365333-28.117333-25.365334H704v85.333334a42.666667 42.666667 0 1 1-85.333333 0v-85.333334H405.333333v85.333334a42.666667 42.666667 0 1 1-85.333333 0v-85.333334z m298.666667-85.333333v-39.381333C618.666667 167.68 570.901333 128 512 128c-58.88 0-106.666667 39.722667-106.666667 88.618667V256h213.333334z" fill="#000000" p-id="3757"></path></svg>